# xmcd
#
# Track frame offsets: 
#        225
#        12793
#        22674
#        33912
#        42144
#        55288
#        63163
#        84919
#        94362
#        107854
#        116922
#        123828
#        145438
#        154394
#        178269
#
# Disc length: 2503 seconds
#
# Revision: 0
# Processed by: cddbd v1.5.2PL0 Copyright (c) Steve Scherf et al.
# Submitted via: ExactAudioCopy v0.99pb3
#
DISCID=c409c40f
DTITLE=Robert Lowery - Goin' Away Blues
DYEAR=1999
DGENRE=Blues
TTITLE0=Don't Be Jealous
TTITLE1=Little Boogie Woman
TTITLE2=Drink Little Woman
TTITLE3=Baby Let Me Play With You
TTITLE4=Chauffeur Blues
TTITLE5=Little Haddy
TTITLE6=Goin' Away Blues
TTITLE7=Love The Way I Do
TTITLE8=Walkin' Your Log
TTITLE9=Low Down Dirty Train
TTITLE10=Sittin' On Top Of The World
TTITLE11=32-20 Blues
TTITLE12=Bring Me My Tea
TTITLE13=Dust My Broom
TTITLE14=Little Bob's Blues
EXTD=
EXTT0=
EXTT1=
EXTT2=
EXTT3=
EXTT4=
EXTT5=
EXTT6=
EXTT7=
EXTT8=
EXTT9=
EXTT10=
EXTT11=
EXTT12=
EXTT13=
EXTT14=
PLAYORDER=
